<svg xmlns="http://www.w3.org/2000/svg" viewBox="0 0 1240 680" font-family="system-ui, -apple-system, 'Segoe UI', Roboto, sans-serif">
  <defs>
    <marker id="ar" viewBox="0 0 10 10" refX="9" refY="5" markerWidth="7" markerHeight="7" orient="auto-start-reverse">
      <path d="M0 0L10 5L0 10z" fill="#5b6b64"/>
    </marker>
    <marker id="arg" viewBox="0 0 10 10" refX="9" refY="5" markerWidth="8" markerHeight="8" orient="auto-start-reverse">
      <path d="M0 0L10 5L0 10z" fill="#1f9d55"/>
    </marker>
  </defs>
  <rect width="1240" height="680" fill="#ffffff"/>
  <text x="32" y="42" font-size="26" font-weight="700" fill="#11201a">pixfrog — system overview</text>
  <text x="32" y="64" font-size="14" fill="#5b6b64">Decouple bursty network ingest from strict-timing LED rendering via buffered, core-pinned stages.</text>

  <!-- Chip outline -->
  <rect x="24" y="84" width="1192" height="520" rx="14" fill="#fbfdfc" stroke="#cfdbd5" stroke-width="1.5"/>
  <text x="44" y="112" font-size="15" font-weight="700" fill="#167a41">ESP32-P4 · dual-core RISC-V @ 360 MHz</text>

  <!-- Column dividers / headers -->
  <text x="60" y="140" font-size="13" font-weight="700" fill="#5b6b64" letter-spacing="1">CORE 0 — INGEST · UI · STORAGE</text>
  <text x="664" y="140" font-size="13" font-weight="700" fill="#5b6b64" letter-spacing="1">CORE 1 — RENDER + DMA</text>
  <line x1="628" y1="124" x2="628" y2="586" stroke="#e4eae7" stroke-width="1.5" stroke-dasharray="4 5"/>

  <!-- LEFT column -->
  <g font-family="'DejaVu Sans Mono', ui-monospace, monospace">
    <rect x="60" y="150" width="520" height="38" rx="8" fill="#f1f5f3" stroke="#cfdbd5"/>
    <text x="80" y="174" font-size="14" fill="#11201a">Ethernet RMII  →  lwIP UDP / TCP</text>

    <rect x="60" y="198" width="520" height="46" rx="8" fill="#eef3fb" stroke="#9bb6e0"/>
    <text x="80" y="221" font-size="14" fill="#11201a">artnet_rx_task — prio 10</text>
    <text x="80" y="238" font-size="11.5" fill="#5b6b64">ArtDmx · Poll · Sync · Address · IpProg · Trigger · TimeCode</text>

    <rect x="60" y="254" width="254" height="46" rx="8" fill="#eef3fb" stroke="#9bb6e0"/>
    <text x="80" y="277" font-size="14" fill="#11201a">sacn_rx_task — 10</text>
    <text x="80" y="293" font-size="11.5" fill="#5b6b64">E1.31 · prio gate · opt-in</text>

    <rect x="326" y="254" width="254" height="46" rx="8" fill="#eef3fb" stroke="#9bb6e0"/>
    <text x="346" y="277" font-size="14" fill="#11201a">fpp_sync — 9</text>
    <text x="346" y="293" font-size="11.5" fill="#5b6b64">MultiSync · opt-in</text>

    <rect x="60" y="310" width="520" height="42" rx="8" fill="#f1f5f3" stroke="#cfdbd5"/>
    <text x="80" y="331" font-size="14" fill="#11201a">fseq_play — prio 5   ◂ microSD (SDMMC 4-bit + FAT)</text>
    <text x="80" y="347" font-size="11.5" fill="#5b6b64">decode v2 zstd FSEQ frames → inject into pool</text>

    <rect x="60" y="366" width="520" height="56" rx="8" fill="#e6f6ec" stroke="#1f9d55" stroke-width="1.5"/>
    <text x="80" y="390" font-size="15" font-weight="700" fill="#11201a">dmx_manager — universe_pool[2][N] · PSRAM</text>
    <text x="80" y="409" font-size="12" fill="#167a41">2-source HTP/LTP merge · double-buffered · atomic pointer swap</text>

    <rect x="60" y="438" width="166" height="68" rx="8" fill="#f1f5f3" stroke="#cfdbd5"/>
    <text x="80" y="462" font-size="14" fill="#11201a">ui_task — 4</text>
    <text x="80" y="480" font-size="11.5" fill="#5b6b64">OLED/TFT +</text>
    <text x="80" y="496" font-size="11.5" fill="#5b6b64">encoder + splash</text>

    <rect x="238" y="438" width="166" height="68" rx="8" fill="#f1f5f3" stroke="#cfdbd5"/>
    <text x="258" y="462" font-size="14" fill="#11201a">config_store</text>
    <text x="258" y="480" font-size="11.5" fill="#5b6b64">NVS cache +</text>
    <text x="258" y="496" font-size="11.5" fill="#5b6b64">migration</text>

    <rect x="416" y="438" width="164" height="68" rx="8" fill="#f1f5f3" stroke="#cfdbd5"/>
    <text x="436" y="462" font-size="14" fill="#11201a">httpd — 5</text>
    <text x="436" y="480" font-size="11.5" fill="#5b6b64">SPA · REST · OTA</text>
    <text x="436" y="496" font-size="11.5" fill="#5b6b64">mDNS · opt-in</text>
  </g>

  <!-- LEFT arrows: ingest → pool -->
  <line x1="320" y1="188" x2="320" y2="198" stroke="#5b6b64" stroke-width="1.6" marker-end="url(#ar)"/>
  <path d="M320 352 V366" fill="none" stroke="#5b6b64" stroke-width="1.8" marker-end="url(#ar)"/>
  <text x="332" y="362" font-size="11" fill="#5b6b64" font-family="system-ui, sans-serif">all ingest → pool[back]</text>
  <!-- fpp drives fseq -->
  <path d="M453 300 V310" fill="none" stroke="#5b6b64" stroke-width="1.4" marker-end="url(#ar)"/>

  <!-- RIGHT column -->
  <g font-family="'DejaVu Sans Mono', ui-monospace, monospace">
    <rect x="664" y="150" width="528" height="150" rx="8" fill="#e6f6ec" stroke="#1f9d55" stroke-width="1.5"/>
    <text x="684" y="176" font-size="15" font-weight="700" fill="#11201a">render_task — prio 20</text>
    <text x="684" y="200" font-size="12.5" fill="#167a41">1 · swap universes (front ↔ back)</text>
    <text x="684" y="220" font-size="12.5" fill="#167a41">2 · fill pixels by source priority:</text>
    <text x="700" y="237" font-size="11" fill="#5b6b64">identify › preview › scene › failsafe › network</text>
    <text x="684" y="257" font-size="12.5" fill="#167a41">3 · encode → fb_back (gamma/WB LUT · color · bright)</text>
    <text x="684" y="277" font-size="12.5" fill="#167a41">4 · esp_cache_msync + loop remount</text>
    <text x="684" y="293" font-size="12.5" fill="#167a41">5 · wait frame retired (timed) / ArtSync</text>

    <rect x="664" y="318" width="528" height="42" rx="8" fill="#f1f5f3" stroke="#cfdbd5"/>
    <text x="684" y="344" font-size="14" fill="#11201a">frame_buf[3] — PSRAM (triple-buffered)</text>

    <rect x="664" y="378" width="528" height="42" rx="8" fill="#f1f5f3" stroke="#cfdbd5"/>
    <text x="684" y="404" font-size="14" fill="#11201a">PARLIO TX + GDMA — gapless loop at PCLK</text>

    <rect x="664" y="438" width="528" height="42" rx="8" fill="#f1f5f3" stroke="#cfdbd5"/>
    <text x="684" y="464" font-size="14" fill="#11201a">16 GPIOs → 8 × (DATA + CLOCK)</text>
  </g>

  <!-- RIGHT arrows -->
  <line x1="928" y1="300" x2="928" y2="318" stroke="#5b6b64" stroke-width="1.6" marker-end="url(#ar)"/>
  <line x1="928" y1="360" x2="928" y2="378" stroke="#5b6b64" stroke-width="1.6" marker-end="url(#ar)"/>
  <line x1="928" y1="420" x2="928" y2="438" stroke="#5b6b64" stroke-width="1.6" marker-end="url(#ar)"/>

  <!-- Cross arrow: universe_pool → render_task -->
  <path d="M580 394 H612 V210 H660" fill="none" stroke="#1f9d55" stroke-width="2" marker-end="url(#arg)"/>
  <rect x="600" y="292" width="24" height="20" rx="4" fill="#ffffff"/>
  <text x="612" y="307" font-size="12" font-weight="700" fill="#167a41" text-anchor="middle" font-family="system-ui, sans-serif">frames</text>

  <!-- Output to strips -->
  <line x1="928" y1="480" x2="928" y2="624" stroke="#5b6b64" stroke-width="1.6" marker-end="url(#ar)"/>
  <rect x="664" y="624" width="528" height="44" rx="8" fill="#11201a"/>
  <text x="928" y="651" font-size="14" fill="#eafff3" text-anchor="middle" font-family="'DejaVu Sans Mono', monospace">LED strips — WS2815 · WS2812B · APA102 · SK9822 · DMX512 · …</text>
</svg>
