<?xml version="1.0" encoding="UTF-8" standalone="no"?>
<svg
   width="881"
   height="881"
   viewBox="0 0 881 881"
   fill="none"
   version="1.1"
   id="svg17"
   sodipodi:docname="logo.svg"
   inkscape:version="1.3.2 (091e20e, 2023-11-25, custom)"
   xmlns:inkscape="http://www.inkscape.org/namespaces/inkscape"
   xmlns:sodipodi="http://sodipodi.sourceforge.net/DTD/sodipodi-0.dtd"
   xmlns="http://www.w3.org/2000/svg"
   xmlns:svg="http://www.w3.org/2000/svg">
  <defs
     id="defs17" />
  <sodipodi:namedview
     id="namedview17"
     pagecolor="#ffffff"
     bordercolor="#000000"
     borderopacity="0.25"
     inkscape:showpageshadow="2"
     inkscape:pageopacity="0.0"
     inkscape:pagecheckerboard="0"
     inkscape:deskcolor="#d1d1d1"
     inkscape:zoom="0.93189557"
     inkscape:cx="439.96346"
     inkscape:cy="440.5"
     inkscape:window-width="1920"
     inkscape:window-height="1017"
     inkscape:window-x="2552"
     inkscape:window-y="-8"
     inkscape:window-maximized="1"
     inkscape:current-layer="svg17" />
  <path
     d="m 398.70802,576.83275 c -6.17346,-0.96285 -12.21738,-1.91165 -18.13647,-2.84484 -54.17534,-8.50957 -108.05104,-15.77383 -160.84999,-25.34456 -40.43176,-8.34571 -85.75888,-14.49263 -115.03753,-38.6824 -6.791425,-6.67906 -7.020824,-17.85713 -2.20035,-28.27678 2.35484,-5.41036 5.60543,-10.62565 9.14314,-15.62715 -4.68002,3.95594 -9.16967,8.29578 -12.977359,13.40339 -7.465572,9.12286 -11.761708,25.28058 -3.395712,37.47143 31.962751,37.51356 77.974971,45.55809 120.073361,54.73712 54.66846,9.90312 110.15776,10.87689 165.04001,6.76334 5.99712,-0.46973 12.1097,-1.00187 18.3409,-1.59955 z"
     fill="#f8c662"
     id="path1"
     style="stroke-width:1.56053;fill:#41644a;fill-opacity:1" />
  <path
     d="m 449.43926,616.09098 c 0,0 0,0 0,0 6.73525,0.7912 13.35345,1.51216 19.85774,2.16758 59.56228,5.84731 119.73004,6.33262 179.4,-0.66946 41.34622,-5.17004 82.48645,-12.57631 122.36422,-29.27241 l -0.51029,0.18102 c 9.75955,-4.24777 18.45637,-10.03109 23.80274,-19.98258 5.59607,-10.28233 1.48251,-22.3499 -4.42722,-29.40193 -4.34607,-5.52427 -9.45992,-9.80637 -14.88589,-13.72486 4.37104,5.05612 8.30202,10.33383 11.12034,16.09687 9.84225,16.93018 -4.66599,29.95747 -19.87959,33.39376 l -0.51029,0.18258 c -38.08003,9.65656 -79.54641,14.31629 -119.79091,19.28034 -58.43401,6.85696 -117.32995,12.67774 -176.70964,19.46916 -6.48244,0.74906 -13.09284,1.51059 -19.83121,2.27993 z"
     fill="#f8c662"
     id="path2"
     style="stroke-width:1.56053;fill:#41644a;fill-opacity:1" />
  <path
     d="m 240.53902,638.38627 c 0,0 0,0 0,0 -4.08546,-1.32021 -8.04453,-2.61077 -11.9833,-3.88416 -35.91715,-11.60097 -71.27874,-21.66327 -105.317,-33.29233 -22.61363,-8.11788 -46.901706,-16.39337 -62.198013,-31.14348 -6.75085,-6.78206 -8.841959,-17.58873 -5.761474,-29.07266 0.983133,-3.93721 2.404775,-7.88068 4.085465,-11.76639 0,0 0,0 0,0 -2.971248,3.0243 -5.745868,6.31858 -8.145962,9.99519 -7.156588,10.09194 -9.99519,26.50402 -2.248723,39.28476 16.538489,25.24 42.135849,35.82194 66.433287,44.84025 36.46957,12.4421 74.49655,16.43705 112.48138,15.55847 4.16974,-0.11548 8.35196,-0.29337 12.65434,-0.51965 z"
     fill="#f8c662"
     id="path3"
     style="stroke-width:1.56053;fill:#41644a;fill-opacity:1" />
  <path
     d="m 270.69781,682.52896 c 10.02327,1.48718 20.07153,2.85889 30.13538,4.12604 29.35511,3.69377 58.81322,6.49023 88.34156,8.53609 61.82192,4.25713 123.60952,5.11541 185.46577,1.41852 77.8907,-5.3214 156.70991,-14.60344 230.74609,-44.35336 l -0.35423,0.13264 c 13.01481,-5.73495 26.17007,-15.63962 28.08328,-30.80796 1.13919,-11.30292 -4.89226,-20.83463 -11.50735,-28.33454 5.47435,8.4253 9.46618,18.52349 7.12383,27.59641 -3.04304,11.89591 -15.49762,19.0447 -26.67257,22.45133 l -0.35268,0.13264 c -73.39013,19.78596 -151.66784,24.62983 -228.37877,29.81548 -61.03386,3.64696 -122.11298,5.68189 -183.76636,7.20652 -29.45811,0.72564 -58.92091,1.36546 -88.46172,1.76496 -10.1294,0.13733 -20.26348,0.24501 -30.40223,0.31523 z"
     fill="#f8c662"
     id="path4"
     style="stroke-width:1.56053;fill:#41644a;fill-opacity:1" />
  <path
     d="m 734.45588,368.97494 c -0.16854,-3.11325 -1.56677,-6.00023 -3.96843,-8.01644 -2.39697,-2.01777 -5.60229,-2.99933 -8.82791,-2.73873 -3.22405,0.26217 -6.18126,1.74311 -8.13504,4.11356 -1.95846,2.37044 -2.75433,5.43376 -2.2971,8.52516 0,0 0,0 0,0 0.39013,2.65135 0.79276,5.28708 1.19537,7.90877 9.05731,46.21664 5.16848,92.06498 -16.83343,133.42213 -1.16103,2.29397 -2.33143,4.53022 -3.58453,6.83356 -0.52747,0.97064 -0.64138,2.14572 -0.34332,3.25214 0.29962,1.10798 0.98781,2.05522 1.93818,2.64978 0.9488,0.59456 2.09111,0.79275 3.19908,0.56803 1.10798,-0.22627 2.08955,-0.85829 2.70596,-1.77276 0,0 0,0 0,0 1.50591,-2.24404 2.92911,-4.42566 4.34764,-6.67594 26.76151,-39.60467 36.31195,-92.47385 31.05765,-140.22605 -0.15918,-2.64196 -0.31523,-5.25898 -0.45412,-7.84321 z"
     fill="#f8c662"
     id="path5"
     style="stroke-width:1.56053;fill:#41644a;fill-opacity:1" />
  <path
     d="m 170.97843,450.25355 c 0.25124,1.04711 0.941,1.97563 1.86796,2.58891 0.93007,0.61173 2.02244,0.85985 3.08516,0.67883 1.06272,-0.18102 2.024,-0.7787 2.72,-1.66664 0.69287,-0.8895 1.06584,-1.99748 0.98626,-3.07425 0,0 0,0 0,0 -0.11236,-1.51527 -0.21536,-3.03523 -0.30743,-4.55206 -1.73686,-27.26713 0.48689,-54.47183 8.97461,-79.16097 0.46659,-1.37639 0.9488,-2.73092 1.45129,-4.09327 1.07365,-2.94159 0.8973,-6.0845 -0.62733,-8.77329 -1.51684,-2.68567 -4.25869,-4.69875 -7.4843,-5.55705 -3.22561,-0.85828 -6.62913,-0.48219 -9.32417,1.08301 -2.70439,1.56209 -4.47871,4.18534 -5.07172,7.25491 0,0 0,0 0,0 -0.32459,1.62606 -0.62264,3.23809 -0.90198,4.86573 -5.10449,29.29425 -2.57019,58.53857 3.58454,85.85251 0.33863,1.52152 0.68975,3.04303 1.04711,4.55363 z"
     fill="#f8c662"
     id="path6"
     style="stroke-width:1.56053;fill:#41644a;fill-opacity:1" />
  <path
     d="m 165.83024,226.46741 c -0.59924,0.92695 -0.90978,2.0365 -0.79587,3.14759 0.11392,1.1111 0.63358,2.12232 1.46378,2.82768 0.82865,0.7038 1.91165,1.05491 3.02742,0.98781 1.11423,-0.0671 2.15978,-0.55398 2.97749,-1.29368 0,0 0,0 0,0 1.71346,-1.51527 3.55333,-2.96968 5.44625,-4.32266 26.98311,-18.5703 61.77043,-22.74939 88.49606,-9.97647 7.74646,3.61419 15.59124,7.16439 24.49563,11.27483 2.23155,1.03931 4.45686,2.04273 6.83199,3.17567 0.92851,0.44163 1.9491,0.74594 2.97905,0.71317 1.03151,-0.0312 1.98031,-0.39326 2.69347,-1.0518 0.71316,-0.65698 1.14855,-1.57613 1.26403,-2.60296 0.11548,-1.02527 -0.10612,-2.06771 -0.47284,-3.02899 -1.06896,-2.6014 -2.22064,-5.02802 -3.61575,-7.42812 -5.51491,-9.55356 -13.91211,-17.5107 -24.22565,-22.29372 -36.61938,-17.46388 -81.33479,-4.72841 -105.69932,23.43603 -1.75092,2.04897 -3.40196,4.21186 -4.86574,6.43562 z"
     fill="#f8c662"
     id="path7"
     style="stroke-width:1.56053;fill:#41644a;fill-opacity:1" />
  <path
     d="m 534.15727,277.50452 c -0.47752,1.01902 -0.59456,2.18943 -0.27621,3.27867 0.31835,1.09081 1.03931,2.00684 2.01465,2.55303 0.97532,0.54775 2.1348,0.68663 3.23341,0.39169 1.10017,-0.29338 2.04117,-1.00186 2.66695,-1.93817 0,0 0,0 0,0 2.40633,-3.60795 4.80019,-7.01146 7.35165,-10.48989 32.99895,-47.14826 93.2307,-87.27727 138.87462,-54.49055 12.56693,8.27705 24.33801,19.07902 36.09972,31.2137 2.98529,3.11014 5.81296,6.05017 8.82947,9.37098 0.7194,0.78495 1.64948,1.3998 2.7044,1.64011 1.05647,0.24032 2.13949,0.0952 3.04771,-0.42446 0.90667,-0.51965 1.58238,-1.38263 1.91165,-2.41725 0.33083,-1.0362 0.27465,-2.15041 -0.0328,-3.171 0,0 0,0 0,0 -1.41228,-4.4522 -2.86357,-8.52205 -4.72996,-12.77918 -7.23774,-16.63212 -18.6811,-32.31231 -34.90436,-43.01598 -28.20188,-20.09182 -69.42483,-18.53597 -97.25374,-1.15947 -28.61699,16.71638 -48.78371,42.42922 -63.55255,69.56995 -2.13793,3.9575 -4.07298,7.81669 -5.98464,11.86782 z"
     fill="#f8c662"
     id="path8"
     style="stroke-width:1.56053;fill:#41644a;fill-opacity:1" />
  <path
     d="m 312.83834,263.47068 c -0.4073,1.04868 -0.44787,2.22064 -0.0593,3.28647 0.38701,1.06428 1.16416,1.93194 2.1707,2.41414 1.00653,0.48221 2.17069,0.54619 3.24746,0.18414 1.07832,-0.36359 1.97094,-1.12669 2.53898,-2.09735 0,0 0,0 0,0 1.95378,-3.30208 4.1869,-6.44811 6.64941,-9.45212 36.32132,-40.62682 96.88702,-54.43594 148.2097,-45.40516 14.79695,2.81988 29.31143,6.44499 44.1068,11.81009 3.7203,1.35765 7.39847,2.79022 11.16246,4.40069 0.97378,0.42134 2.06927,0.61173 3.13199,0.41354 1.06116,-0.19663 1.99747,-0.75686 2.62325,-1.58706 0.62577,-0.82864 0.90667,-1.882 0.80523,-2.95564 -0.10144,-1.07521 -0.58675,-2.07551 -1.25935,-2.89479 0,0 0,0 0,0 -2.81363,-3.34264 -5.81297,-6.4481 -9.10101,-9.37566 -13.04133,-11.68212 -29.69062,-19.56747 -47.00001,-22.81805 -60.19585,-10.53825 -127.23463,10.66466 -161.41334,62.33846 -2.26433,3.77804 -4.22436,7.69809 -5.81297,11.7383 z"
     fill="#f8c662"
     id="path9"
     style="stroke-width:1.56053;fill:#41644a;fill-opacity:1" />
  <path
     fill-rule="evenodd"
     clip-rule="evenodd"
     d="m 681.70219,218.78648 c 36.89872,-2.3798 72.7706,34.65468 75.3127,80.62631 2.54054,45.97007 -29.21154,83.4727 -66.1087,85.85096 -36.89871,2.3798 -62.47267,-31.03425 -65.01477,-77.00432 -2.54054,-45.97163 18.91206,-87.09469 55.81077,-89.47295 z m 59.30635,81.04453 c -2.06925,-37.44178 -29.42533,-67.72229 -57.43995,-65.91675 -28.01306,1.80708 -44.17859,35.21334 -42.10933,72.65512 2.06927,37.44178 21.59149,64.73856 49.60611,62.93302 28.01462,-1.8071 52.01244,-32.22961 49.94317,-69.67139 z"
     fill="#f8c662"
     id="path10"
     style="stroke-width:1.56053;fill:#41644a;fill-opacity:1" />
  <path
     fill-rule="evenodd"
     clip-rule="evenodd"
     d="m 140.66047,272.99303 c 4.66754,-43.62928 33.64969,-71.08054 59.25953,-68.04844 25.60829,3.03367 40.12277,42.63834 35.45523,86.26761 -4.66754,43.62772 -26.7506,74.75872 -52.35888,71.72661 -25.60984,-3.03366 -47.02342,-46.31807 -42.35588,-89.94578 z m 56.39284,-52.3105 c -17.31094,-2.04897 -37.30133,20.26035 -41.03099,55.12101 -3.72967,34.8591 10.21522,69.07058 27.52462,71.11956 17.31094,2.04898 32.67591,-23.09427 36.40558,-57.95493 3.7281,-34.8591 -5.58982,-66.23511 -22.89921,-68.28564 z"
     fill="#f8c662"
     id="path11"
     style="stroke-width:1.56053;fill:#41644a;fill-opacity:1" />
  <mask
     id="path-13-inside-1_0_1"
     fill="white">
    <path
       d="M640 353.627C640.625 367.131 619.826 377.993 599.32 377.888C578.813 377.782 563.125 367.131 562.5 353.627C561.875 340.123 576.549 328.879 597.056 328.985C617.562 329.09 639.375 340.123 640 353.627Z"
       id="path12" />
  </mask>
  <path
     d="m 752.77806,304.781 c 0.97532,21.0734 -31.48212,38.02387 -63.48233,37.86001 -32.00178,-0.16542 -56.48335,-16.78661 -57.45869,-37.86001 -0.97533,-21.07338 21.92387,-38.61997 53.92565,-38.45455 32.00021,0.16385 66.04004,17.38117 67.01537,38.45455 z"
     fill="#f8c662"
     id="path13"
     style="stroke-width:1.56053;fill:#41644a;fill-opacity:1" />
  <path
     d="m 643.75,353.646 c -2.5,-0.013 -5,-0.025 -7.5,-0.038 -0.735,2.361 -2.271,4.066 -4.185,5.573 -8.041,5.879 -20.273,8.184 -31.222,8.687 -0.663,0.023 -1.326,0.034 -1.986,0.032 -12.989,0.405 -26.949,-6.844 -27.046,-14.225 -1.515,-7.873 11.923,-17.119 25.585,-17.346 12.151,-0.602 26.663,2.572 35.257,10.795 1.899,1.943 3.214,4.119 3.597,6.484 2.5,0.013 5,0.025 7.5,0.038 0.104,-4.368 -1.706,-8.675 -4.119,-12.018 -11.034,-13.784 -27.11,-18.764 -42.915,-19.988 -16.845,-0.816 -42.139,5.297 -43.527,31.939 2.927,27.114 29.56,34.113 46.593,34.296 0.937,0.006 1.874,-0.008 2.805,-0.041 15.338,-0.853 30.909,-6.508 39.35,-21.326 1.904,-3.741 2.892,-8.489 1.813,-12.862 z m -7.5,-0.038 7.5,0.038 z"
     fill="#f8c662"
     mask="url(#path-13-inside-1_0_1)"
     id="path14"
     transform="matrix(1.5605292,0,0,1.5605292,-245.96065,-247.06426)"
     style="fill:#41644a;fill-opacity:1" />
  <mask
     id="path-15-inside-2_0_1"
     fill="white">
    <path
       d="M305.926 344.141C306.495 356.227 292.257 364.183 278.668 364.112C265.078 364.041 253.6 354.186 253.031 342.1C252.462 330.014 263.016 320.274 276.605 320.345C290.195 320.416 305.356 332.056 305.926 344.141Z"
       id="path15" />
  </mask>
  <path
     d="m 231.44582,289.97783 c 0.88794,18.86056 -21.33088,31.27612 -42.53691,31.16533 -21.2076,-0.1108 -39.11934,-15.48982 -40.00728,-34.35037 -0.88795,-18.86056 15.58188,-34.06011 36.7879,-33.94931 21.2076,0.11079 44.86679,18.27535 45.75629,37.13435 z"
     fill="#f8c662"
     id="path16"
     style="stroke-width:1.56053;fill:#41644a;fill-opacity:1" />
  <path
     d="m 309.676,344.161 c -2.5,-0.013 -5,-0.026 -7.5,-0.039 -0.748,1.899 -1.894,3.255 -3.198,4.331 -5.253,4.106 -13.424,5.576 -20.584,5.671 -0.066,0 -0.131,0 -0.197,-0.001 -7.91,0.117 -15.307,-5.653 -15.823,-11.974 -1.065,-6.322 5.494,-13.789 14.579,-14.42 7.551,-0.759 17.83,3.763 22.872,11.01 1.15,1.675 1.985,3.49 2.351,5.383 2.5,0.013 5,0.026 7.5,0.039 0.134,-3.158 -0.576,-6.357 -1.786,-9.246 -5.654,-12.319 -17.438,-20.697 -31.632,-21.953 -15.163,-1.403 -33.013,10.065 -32.57,29.089 0.364,19.022 19.174,32.451 35.45,32.05 0.12,10e-4 0.239,10e-4 0.358,10e-4 12.669,-0.204 25.84,-6.251 30.263,-19.806 0.94,-3.323 0.918,-6.975 -0.083,-10.135 z m -7.5,-0.039 7.5,0.039 z"
     fill="#f8c662"
     mask="url(#path-15-inside-2_0_1)"
     id="path17"
     transform="matrix(1.5605292,0,0,1.5605292,-245.96065,-247.06426)"
     style="fill:#41644a;fill-opacity:1" />
</svg>
