<svg xmlns="http://www.w3.org/2000/svg" viewBox="0 0 1000 560" font-family="system-ui, -apple-system, 'Segoe UI', Roboto, sans-serif">
  <rect width="1000" height="560" fill="#ffffff"/>
  <text x="32" y="40" font-size="24" font-weight="700" fill="#11201a">FreeRTOS task topology</text>
  <text x="32" y="62" font-size="14" fill="#5b6b64">Network + UI pinned to core 0; the strict-timing render loop owns core 1. Higher number = higher priority.</text>

  <!-- core columns -->
  <rect x="32" y="84" width="450" height="452" rx="12" fill="#fbfdfc" stroke="#cfdbd5" stroke-width="1.5"/>
  <rect x="518" y="84" width="450" height="452" rx="12" fill="#fbfdfc" stroke="#cfdbd5" stroke-width="1.5"/>
  <text x="56" y="114" font-size="15" font-weight="700" fill="#167a41">CORE 0 — network + UI</text>
  <text x="542" y="114" font-size="15" font-weight="700" fill="#167a41">CORE 1 — render + DMA</text>

  <g font-family="'DejaVu Sans Mono', ui-monospace, monospace">
    <!-- Core 0 tasks -->
    <rect x="56" y="130" width="402" height="58" rx="8" fill="#f1f5f3" stroke="#cfdbd5"/>
    <text x="76" y="156" font-size="15" fill="#11201a">eth_rx_task</text>
    <text x="76" y="176" font-size="12" fill="#5b6b64">RMII → lwIP · stack 2 kB</text>
    <text x="438" y="164" font-size="20" font-weight="700" fill="#9bb0a6" text-anchor="end">19</text>

    <rect x="56" y="198" width="402" height="58" rx="8" fill="#f1f5f3" stroke="#cfdbd5"/>
    <text x="76" y="224" font-size="15" fill="#11201a">lwip_tcpip_thread</text>
    <text x="76" y="244" font-size="12" fill="#5b6b64">IDF TCP/IP stack · stack 4 kB</text>
    <text x="438" y="232" font-size="20" font-weight="700" fill="#9bb0a6" text-anchor="end">18</text>

    <rect x="56" y="266" width="402" height="58" rx="8" fill="#f1f5f3" stroke="#cfdbd5"/>
    <text x="76" y="292" font-size="15" fill="#11201a">artnet_rx_task</text>
    <text x="76" y="312" font-size="12" fill="#5b6b64">parse ArtDmx → pool[back] · 4 kB</text>
    <text x="438" y="300" font-size="20" font-weight="700" fill="#5b6b64" text-anchor="end">10</text>

    <rect x="56" y="334" width="402" height="58" rx="8" fill="#f1f5f3" stroke="#cfdbd5"/>
    <text x="76" y="360" font-size="15" fill="#11201a">ui_task</text>
    <text x="76" y="380" font-size="12" fill="#5b6b64">encoder + OLED + NVS · 4 kB</text>
    <text x="438" y="368" font-size="20" font-weight="700" fill="#9bb0a6" text-anchor="end">4</text>

    <rect x="56" y="402" width="402" height="46" rx="8" fill="#f6f8f7" stroke="#e4eae7"/>
    <text x="76" y="430" font-size="14" fill="#9bb0a6">idle_0</text>
    <text x="438" y="431" font-size="18" font-weight="700" fill="#cfdbd5" text-anchor="end">0</text>

    <!-- Core 1 tasks -->
    <rect x="542" y="130" width="402" height="126" rx="8" fill="#e6f6ec" stroke="#1f9d55" stroke-width="1.5"/>
    <text x="562" y="158" font-size="16" font-weight="700" fill="#11201a">render_task</text>
    <text x="562" y="182" font-size="12.5" fill="#167a41">swap universes → encode frame →</text>
    <text x="562" y="200" font-size="12.5" fill="#167a41">draw_bitmap → wait done_sem</text>
    <text x="562" y="224" font-size="12" fill="#5b6b64">wake: 60 Hz timer + ArtSync</text>
    <text x="562" y="242" font-size="12" fill="#5b6b64">stack 8 kB · hot path</text>
    <text x="924" y="166" font-size="22" font-weight="700" fill="#1f9d55" text-anchor="end">20</text>

    <rect x="542" y="402" width="402" height="46" rx="8" fill="#f6f8f7" stroke="#e4eae7"/>
    <text x="562" y="430" font-size="14" fill="#9bb0a6">idle_1</text>
    <text x="924" y="431" font-size="18" font-weight="700" fill="#cfdbd5" text-anchor="end">0</text>
  </g>

  <text x="56" y="494" font-size="13" fill="#5b6b64" font-family="system-ui, sans-serif">No lcd_cam_refill_task: the full frame lives in PSRAM, GDMA scans it in one</text>
  <text x="56" y="514" font-size="13" fill="#5b6b64" font-family="system-ui, sans-serif">transaction and on_color_trans_done releases done_sem at the end.</text>
</svg>
